<?xml version="1.0" standalone="no"?>
<!DOCTYPE svg PUBLIC "-//W3C//DTD SVG 20010904//EN"
        "http://www.w3.org/TR/2001/REC-SVG-20010904/DTD/svg10.dtd">
<svg version="1.0" xmlns="http://www.w3.org/2000/svg"
     width="32.000000pt" height="32.000000pt" viewBox="0 0 1200.000000 1200.000000"
     preserveAspectRatio="xMidYMid meet">

    <g transform="translate(0.000000,1200.000000) scale(0.100000,-0.100000)"
       fill="#696CFF" stroke="none">
        <path d="M5900 10240 c-192 -23 -373 -106 -500 -228 l-51 -49 -37 37 c-61 61
-136 84 -272 83 -127 0 -203 -15 -329 -63 -262 -101 -533 -364 -675 -654 -156
-318 -228 -674 -257 -1254 -6 -130 -24 -408 -39 -617 -15 -209 -26 -382 -24
-384 8 -9 624 -127 624 -119 0 4 -16 60 -35 124 -81 269 -118 555 -96 755 10
96 36 238 45 247 3 3 119 -151 312 -415 l83 -113 5 55 c3 30 9 81 12 113 12
111 71 265 150 389 45 70 153 183 219 229 l55 37 62 -17 c97 -27 259 -113 485
-257 355 -227 469 -277 873 -379 436 -111 593 -190 758 -382 85 -98 154 -238
183 -368 13 -55 27 -100 31 -100 16 0 852 141 855 144 2 2 -5 59 -16 127 -11
68 -36 243 -56 389 -152 1117 -254 1505 -485 1845 -169 248 -410 423 -825 598
-437 183 -787 258 -1055 227z"/>
        <path d="M2723 6899 c-23 -7 -40 -22 -58 -53 l-25 -43 0 -746 0 -747 -150 0
c-82 0 -150 -3 -150 -6 0 -3 47 -75 105 -159 58 -85 105 -159 105 -165 0 -7
-16 -30 -35 -52 -19 -22 -52 -75 -74 -117 -146 -282 -110 -624 92 -846 26 -29
47 -57 47 -62 0 -5 -54 -89 -120 -187 -66 -97 -120 -179 -120 -181 0 -3 68 -5
150 -5 l150 0 0 -614 0 -613 23 -34 c12 -19 38 -41 57 -50 22 -9 662 -103
1665 -244 l1630 -228 1645 232 1645 231 33 35 32 35 0 625 0 625 340 0 340 0
-131 193 c-72 105 -173 255 -225 332 l-93 140 20 70 c25 86 30 261 10 351
l-13 61 211 311 c116 171 211 313 211 316 0 3 -151 6 -335 6 l-335 0 0 753 c0
832 5 774 -66 817 -23 15 -51 22 -82 22 -26 0 -757 -100 -1625 -221 -868 -122
-1593 -221 -1611 -221 -18 0 -739 99 -1602 220 -863 121 -1582 222 -1599 224
-16 2 -44 0 -62 -5z m1687 -493 l1435 -202 3 -447 2 -447 -1470 0 -1470 0 0
648 c0 357 2 651 5 654 3 2 17 3 32 1 16 -2 674 -95 1463 -207z m4680 -447 l0
-649 -1485 0 -1485 0 0 445 c0 349 3 445 13 445 6 1 671 94 1477 209 806 114
1468 206 1473 204 4 -2 7 -296 7 -654z m-1690 -755 c0 -9 -14 -66 -31 -128
-41 -145 -79 -280 -124 -446 -21 -74 -50 -180 -66 -235 -15 -54 -27 -100 -26
-102 2 -1 25 36 52 85 120 214 214 302 322 302 94 0 132 -57 132
-197 0 -111 -5 -127 -102 -358 -45 -104 -83 -208 -85 -231 -9 -76 49 -96 109
-36 31 32 95 142 128 225 23 55 39 67 67 49 24 -15 -87 -242 -156 -315 -66
-72 -156 -85 -212 -31 -37 35 -53 84 -52 160 1 93 18 151 106 358 81 193 100
263 77 291 -33 40 -129 -7 -199 -99 -98 -127 -235 -400 -302 -601 l-36 -110
-73 -3 c-66 -3 -72 -1 -66 15 4 10 19 61 32 113 14 52 39 145 56 205 16 61 37
135 45 165 38 138 53 215 53 266 0 53 -1 54 -29 54 -19 0 -39 -11 -60 -32 -32
-33 -110 -176 -131 -240 -12 -38 -23 -45 -49 -29 -18 11 0 64 61 183 89 173
204 242 286 173z m1114 14 c43 -19 70 -73 76 -148 7 -109 -11 -180 -99 -385
-86 -200 -106 -280 -76 -305 13 -10 24 -10 52 -1 47 15 90 75 152 208 35 75
52 102 65 102 10 0 21 -7 24 -15 8 -20 -64 -178 -115 -253 -116 -171 -276
-158 -306 25 -14 85 12 186 100 398 90 216 103 261 86 294 -18 32 -55 26 -102
-16 -30 -27 -58 -72 -101 -161 -44 -91 -64 -122 -75 -118 -8 3 -18 6 -23 6
-27 0 81 226 141 294 24 27 57 57 74 67 33 21 92 25 127 8z m673 -11 c62 -48
81 -156 50 -286 -8 -34 -51 -147 -95 -251 -83 -195 -98 -263 -66 -290 34 -28
130 27 193 111 114 153 256 442 314 641 l22 77 69 0 c-37 0 68 -171
144 -120 28 26 50 63 69 107 11 25 31 65 44 89 15 31 25 61 25 85 0 36 -51 82
-89 82 -14 0 -63 -33 -110 -73 -47 -40 -96 -77 -109 -82 -14 -5 -44 3 -74 18
-57 31 -102 84 -179 199 -46 64 -99 138 -116 163 -16 25 -42 61 -58 80 -37 45
-116 123 -163 160 -26 19 -62 34 -79 34 -15 0 -24 -7 -28 -23z m-2625 -1901 l0
-745 -32 5 c-18 3 -679 96 -1468 208 l-1435 202 -3 537 -2 537 1470 0 1470 0
0 -744z m3240 209 l0 -535 -22 -5 c-13 -2 -664 -95 -1448 -205 -784 -110
-1442 -202 -1462 -206 l-38 -6 0 746 0 746 1485 0 1485 0 0 -535z"/>
        <path d="M8324 4631 c-177 -108 -333 -742 -193 -786 79 -25 183 62 264 224 88
175 136 401 106 494 -26 78 -109 110 -177 68z"/>
    </g>
</svg>
