<?xml version="1.0" standalone="no"?>
<!DOCTYPE svg PUBLIC "-//W3C//DTD SVG 20010904//EN"
        "http://www.w3.org/TR/2001/REC-SVG-20010904/DTD/svg10.dtd">
<svg version="1.0" xmlns="http://www.w3.org/2000/svg"
     width="32pt" height="32pt" viewBox="0 0 1200.000000 1200.000000"
     preserveAspectRatio="xMidYMid meet">

    <g transform="translate(0.000000,1200.000000) scale(0.100000,-0.100000)"
       fill="#696CFF" stroke="none">
        <path d="M4228 8127 c-972 -584 -1764 -1065 -1759 -1070 5 -5 638 -386 1407
-848 l1398 -839 -272 -2 -272 -3 266 -398 c146 -220 264 -400 262 -402 -2 -2
-307 179 -678 402 -371 223 -683 408 -693 411 -16 4 -17 -30 -15 -644 l3 -649
1062 -638 1061 -637 1064 638 1063 638 3 642 2 641 175 -105 175 -105 0 -1175
0 -1174 355 0 355 0 0 1378 0 1377 -536 322 -536 321 712 427 c392 235 708
431 703 435 -11 10 -3531 2120 -3535 2119 -1 0 -798 -478 -1770 -1062z m3534
-2537 c183 -110 333 -204 333 -210 0 -6 -307 -194 -682 -419 l-682 -410 269
405 c149 222 270 406 270 409 0 2 -122 6 -270 7 l-270 3 342 207 c189 113 346
207 350 207 3 1 156 -89 340 -199z m-1517 -467 c65 -45 88 -105 93 -238 4
-112 -14 -275 -43 -380 -44 -162 -81 -494 -56 -509 17 -11 40 5 63 42 19 31
23 50 22 115 l-1 77 33 0 c59 0 65 -17 36 -117 -53 -186 -181 -264 -276 -168
-70 70 -81 189 -46 520 25 228 35 444 26 508 -9 61 -53 107 -102 107 -44 0
-94 -44 -165 -148 l-54 -77 -6 -205 c-4 -113 -10 -307 -14 -431 l-8 -227 42
-7 c39 -6 71 -26 71 -44 0 -13 -96 -21 -178 -14 -45 3 -108 0 -151 -7 -69 -11
-76 -11 -88 6 -21 28 -15 42 20 49 60 12 68 17 78 42 11 30 23 902 13 976 -6
45 -7 47 -39 47 -40 0 -85 16 -85 29 0 22 85 33 194 27 122 -7 143 -15 158
-58 l11 -30 46 45 c99 94 135 108 266 102 89 -4 104 -8 140 -32z"/>
    </g>
</svg>
